<svg width="800" height="600" viewBox="0 0 800 600" fill="none" xmlns="http://www.w3.org/2000/svg">
  <!-- Simplified UK Map Outline -->
  <path d="M230 480 L250 460 L240 440 L260 420 L250 400 L280 380 L270 360 L300 340 L290 320 L320 300 L310 280 L340 260 L330 240 L360 220 L350 200 L380 180 L370 160 L400 140 L390 120 L420 100 L410 80 L440 60 L430 40 L460 20 L480 40 L470 60 L500 80 L490 100 L520 120 L510 140 L540 160 L530 180 L560 200 L550 220 L580 240 L570 260 L600 280 L590 300 L620 320 L610 340 L640 360 L630 380 L660 400 L650 420 L680 440 L670 460 L700 480" fill="#D6D3CD" stroke="none"/>
  
  <!-- This is a very abstract placeholder path. For a real project, we'd need exact geo-paths. 
       Since I cannot browse the web to download a file, I will use a stylized abstract representation 
       that fits the 'design' aesthetic. -->
       
  <!-- Abstract UK Shape (Approximate for design) -->
  <g opacity="0.5">
    <!-- Scotland -->
    <path d="M350 150 C380 100 450 100 480 150 C500 200 450 250 400 250 C380 250 350 200 350 150 Z" fill="#D1CDC7"/>
    <!-- England/Wales -->
    <path d="M380 250 C450 250 500 350 480 450 C450 500 350 500 320 450 C300 400 350 300 380 250 Z" fill="#D1CDC7"/>
    <!-- Northern Ireland -->
    <path d="M280 280 C300 280 310 300 300 320 C290 330 270 320 280 280 Z" fill="#D1CDC7"/>
  </g>

  <!-- Markers -->
  <!-- Red Marker (London) -->
  <g transform="translate(460, 400)">
    <path d="M12 0C5.37 0 0 5.37 0 12C0 21 12 34 12 34C12 34 24 21 24 12C24 5.37 18.63 0 12 0Z" fill="#DC2626"/>
    <circle cx="12" cy="12" r="4" fill="#1e1e1e"/>
  </g>

  <!-- Yellow Marker (Manchester) -->
  <g transform="translate(400, 320)">
    <path d="M10 0C4.48 0 0 4.48 0 10C0 17.5 10 28.33 10 28.33C10 28.33 20 17.5 20 10C20 4.48 15.52 0 10 0Z" fill="#FBBF24"/>
    <circle cx="10" cy="10" r="3" fill="#1e1e1e"/>
  </g>

  <!-- Yellow Marker (Scotland) -->
  <g transform="translate(420, 180)">
    <path d="M10 0C4.48 0 0 4.48 0 10C0 17.5 10 28.33 10 28.33C10 28.33 20 17.5 20 10C20 4.48 15.52 0 10 0Z" fill="#FBBF24"/>
    <circle cx="10" cy="10" r="3" fill="#1e1e1e"/>
  </g>
  
  <!-- Dotted Lines -->
  <path d="M472 400 Q450 350 410 330" stroke="#9CA3AF" stroke-width="1" stroke-dasharray="4 4" fill="none"/>
  <path d="M410 320 Q415 250 430 190" stroke="#9CA3AF" stroke-width="1" stroke-dasharray="4 4" fill="none"/>

</svg>
