<?xml version="1.0" encoding="UTF-8"?>
<!DOCTYPE svg PUBLIC "-//W3C//DTD SVG 1.1//EN" "http://www.w3.org/Graphics/SVG/1.1/DTD/svg11.dtd">
<!-- Creator: CorelDRAW -->
<svg xmlns="http://www.w3.org/2000/svg" xml:space="preserve" width="1.10554in" height="0.966933in" version="1.1" style="shape-rendering:geometricPrecision; text-rendering:geometricPrecision; image-rendering:optimizeQuality; fill-rule:evenodd; clip-rule:evenodd"
viewBox="0 0 264.4 231.25"
 xmlns:xlink="http://www.w3.org/1999/xlink"
 xmlns:xodm="http://www.corel.com/coreldraw/odm/2003">
 <defs>
  <style type="text/css">
   <![CDATA[
    .fil0 {fill:white}
   ]]>
  </style>
 </defs>
 <g id="Layer_x0020_1">
  <metadata id="CorelCorpID_0Corel-Layer"/>
  <g id="_2060494371200">
   <path class="fil0" d="M253.44 159.03l-144.52 -2.79 4.99 -9.35 139.53 -2.89c4.13,-0.08 7.52,3.38 7.52,7.52l0 0c0,4.13 -3.38,7.6 -7.52,7.52zm0 -86.81l-144.52 2.79 4.99 9.35 139.53 2.89c4.13,0.08 7.52,-3.38 7.52,-7.52l0 0c0,-4.13 -3.38,-7.6 -7.52,-7.52zm-10.63 -24.94l-147.02 3.15 4.59 8.61 142.42 3.27c4.13,0.1 7.52,-3.38 7.52,-7.52l0 0c0,-4.13 -3.39,-7.61 -7.52,-7.52zm14.08 47.28l-136.23 2.44 5.38 10.08 130.85 2.51c4.13,0.08 7.52,-3.38 7.52,-7.52l0 -0c0,-4.13 -3.39,-7.59 -7.52,-7.52zm-32.48 -69.74l-140.44 3.47 4.24 7.95 136.2 3.61c4.13,0.11 7.52,-3.38 7.52,-7.52l0 -0c0,-4.13 -3.39,-7.62 -7.52,-7.52zm18.4 159.16l-147.02 -3.15 4.59 -8.61 142.42 -3.28c4.13,-0.09 7.52,3.38 7.52,7.52l0 0c0,4.13 -3.39,7.61 -7.52,7.52zm14.08 -47.28l-136.23 -2.44 5.38 -10.08 130.85 -2.51c4.13,-0.08 7.52,3.38 7.52,7.52l0 0c0,4.13 -3.39,7.59 -7.52,7.52zm-32.48 69.74l-140.44 -3.47 4.24 -7.95 136.2 -3.61c4.13,-0.11 7.52,3.38 7.52,7.52l0 0c0,4.13 -3.39,7.62 -7.52,7.52zm-25.38 24.81l-128.05 -3.94 3.73 -6.99 124.32 -4.1c4.13,-0.14 7.52,3.38 7.52,7.52l0 0c0,4.13 -3.39,7.64 -7.52,7.52zm0 -231.25l-128.05 3.94 3.73 6.99 124.32 4.1c4.13,0.14 7.52,-3.38 7.52,-7.52l0 -0c0,-4.13 -3.39,-7.64 -7.52,-7.52z"/>
   <polygon class="fil0" points="-0,0 52.89,0 114.62,115.63 52.89,231.25 -0,231.25 61.73,115.63 "/>
  </g>
 </g>
</svg>
