<?xml version="1.0" encoding="UTF-8"?>
<!DOCTYPE svg PUBLIC "-//W3C//DTD SVG 1.1//EN" "http://www.w3.org/Graphics/SVG/1.1/DTD/svg11.dtd">
<!-- Creator: CorelDRAW -->
<svg xmlns="http://www.w3.org/2000/svg" xml:space="preserve" width="4.62254in" height="0.966933in" version="1.1" style="shape-rendering:geometricPrecision; text-rendering:geometricPrecision; image-rendering:optimizeQuality; fill-rule:evenodd; clip-rule:evenodd"
viewBox="0 0 4622.54 966.93"
 xmlns:xlink="http://www.w3.org/1999/xlink"
 xmlns:xodm="http://www.corel.com/coreldraw/odm/2003">
 <defs>
  <style type="text/css">
   <![CDATA[
    .fil0 {fill:white}
    .fil1 {fill:white;fill-rule:nonzero}
   ]]>
  </style>
 </defs>
 <g id="Layer_x0020_1">
  <metadata id="CorelCorpID_0Corel-Layer"/>
  <g id="_2060449054336">
   <g>
    <path class="fil0" d="M1059.69 664.95l-604.29 -11.67 20.88 -39.11 583.41 -12.08c17.28,-0.35 31.43,14.15 31.43,31.43l0 0c0,17.29 -14.15,31.76 -31.43,31.43zm0 -362.96l-604.29 11.67 20.88 39.11 583.41 12.08c17.28,0.35 31.43,-14.14 31.43,-31.43l0 0c0,-17.29 -14.15,-31.76 -31.43,-31.43zm-44.44 -104.29l-614.71 13.18 19.21 35.99 595.5 13.69c17.28,0.4 31.43,-14.14 31.43,-31.43l0 0c0,-17.29 -14.17,-31.8 -31.43,-31.43zm58.86 197.67l-569.63 10.21 22.5 42.14 547.13 10.51c17.28,0.33 31.43,-14.14 31.43,-31.43l0 -0c0,-17.29 -14.16,-31.74 -31.43,-31.43zm-135.8 -291.61l-587.22 14.53 17.74 33.23 569.47 15.11c17.28,0.46 31.43,-14.14 31.43,-31.43l0 -0c0,-17.29 -14.17,-31.85 -31.43,-31.43zm76.93 665.48l-614.71 -13.18 19.21 -35.98 595.5 -13.7c17.28,-0.39 31.43,14.15 31.43,31.43l0 0c0,17.29 -14.17,31.8 -31.43,31.43zm58.86 -197.67l-569.63 -10.21 22.5 -42.14 547.13 -10.51c17.28,-0.33 31.43,14.14 31.43,31.43l0 0c0,17.28 -14.16,31.73 -31.43,31.43zm-135.8 291.61l-587.22 -14.53 17.74 -33.23 569.47 -15.1c17.28,-0.46 31.43,14.14 31.43,31.43l0 0c0,17.28 -14.17,31.85 -31.43,31.43zm-106.14 103.74l-535.43 -16.47 15.61 -29.24 519.81 -17.15c17.28,-0.57 31.43,14.14 31.43,31.43l0 0c0,17.29 -14.18,31.96 -31.43,31.43zm0 -966.9l-535.43 16.48 15.61 29.24 519.81 17.15c17.28,0.57 31.43,-14.14 31.43,-31.43l0 -0c0,-17.28 -14.18,-31.96 -31.43,-31.43z"/>
    <polygon class="fil0" points="-0,0 221.16,0 479.28,483.47 221.16,966.93 -0,966.93 258.11,483.47 "/>
   </g>
   <g>
    <path class="fil1" d="M1291.09 691.99c-2.95,0 -5.29,-1.03 -7,-3.1 -1.72,-2.07 -2.33,-4.57 -1.83,-7.52l100.57 -598.41c0.5,-2.95 1.95,-5.46 4.36,-7.52 2.41,-2.07 5.09,-3.1 8.05,-3.1l197.41 0c41.9,0 77.49,7.67 106.78,23.02 29.29,15.34 50.31,36.89 63.06,64.62 12.75,27.74 16.05,59.9 9.9,96.49l-42.25 251.41c-6.15,36.59 -20.26,68.75 -42.33,96.49 -22.07,27.74 -50.33,49.28 -84.78,64.62 -34.44,15.34 -72.62,23.02 -114.52,23.02l-197.41 0zm158.19 -130.13c-0.5,2.95 0.73,4.43 3.68,4.43l58.57 -0.89c17.7,0 33.45,-6.79 47.24,-20.36 13.79,-13.57 22.91,-31.87 27.37,-54.88l36.45 -216.88c3.77,-22.43 1.06,-40.57 -8.11,-54.44 -9.18,-13.87 -23.21,-20.8 -42.09,-20.8l-57.54 0c-2.95,0 -4.67,1.48 -5.17,4.43l-60.4 359.4z"/>
    <path id="_1" class="fil1" d="M1971.22 700.84c-42.49,0 -78.53,-8.56 -108.11,-25.67 -29.58,-17.11 -50.74,-41.31 -63.48,-72.59 -12.74,-31.28 -15.65,-67.57 -8.7,-108.88l37.49 -223.07c6.84,-40.72 21.87,-76.57 45.07,-107.56 23.21,-30.98 52.48,-55.03 87.81,-72.15 35.34,-17.11 74.25,-25.67 116.74,-25.67 42.49,0 78.53,8.56 108.11,25.67 29.58,17.11 50.77,41.16 63.56,72.15 12.8,30.98 15.77,66.83 8.93,107.56l-37.49 223.07c-6.94,41.31 -22.04,77.61 -45.3,108.88 -23.26,31.28 -52.56,55.48 -87.89,72.59 -35.33,17.11 -74.24,25.67 -116.74,25.67zm21.28 -126.59c20.65,0 38.35,-6.93 53.07,-20.8 14.72,-13.87 23.97,-32.02 27.74,-54.44l38.98 -231.93c3.77,-22.43 0.5,-40.72 -9.81,-54.88 -10.31,-14.17 -25.5,-21.24 -45.56,-21.24 -20.66,0 -38.35,6.93 -53.07,20.8 -14.72,13.87 -24.02,32.31 -27.89,55.33l-38.98 231.93c-3.77,22.43 -0.62,40.57 9.44,54.44 10.06,13.87 25.42,20.8 46.08,20.8z"/>
    <path id="_2" class="fil1" d="M2539.26 691.99c-5.9,0 -9.24,-2.95 -10.02,-8.85l-43.78 -234.59c-0.79,-2.36 -2.06,-3.54 -3.83,-3.54l-35.41 0c-2.95,0 -4.67,1.47 -5.17,4.43l-38.98 231.93c-0.5,2.95 -1.95,5.46 -4.36,7.52 -2.41,2.07 -5.09,3.1 -8.04,3.1l-125.7 0c-2.95,0 -5.29,-1.03 -7,-3.1 -1.72,-2.07 -2.33,-4.57 -1.83,-7.52l100.57 -598.41c0.5,-2.95 1.95,-5.46 4.36,-7.52 2.41,-2.07 5.09,-3.1 8.05,-3.1l226.62 0c36.59,0 67.53,8.11 92.83,24.34 25.31,16.23 43.2,38.8 53.69,67.72 10.48,28.92 12.55,62.26 6.2,100.03 -6.25,37.18 -19.67,69.64 -40.27,97.37 -20.6,27.74 -46.25,48.69 -76.96,62.85 -2.46,0.59 -3.35,2.36 -2.66,5.31l54.54 249.63c0.39,1.18 0.44,2.66 0.14,4.43 -0.89,5.31 -4.59,7.97 -11.08,7.97l-131.9 0zm-51.54 -493.96c-2.95,0 -4.67,1.48 -5.17,4.43l-21.13 125.7c-0.5,2.95 0.73,4.43 3.68,4.43l61.97 0c18.88,0 35.07,-5.9 48.56,-17.7 13.49,-11.8 21.97,-28.03 25.44,-48.69 3.57,-21.25 0.62,-37.92 -8.86,-50.02 -9.48,-12.1 -23.65,-18.15 -42.54,-18.15l-61.97 0z"/>
    <path id="_3" class="fil1" d="M3079.24 691.99c-6.49,0 -9.78,-3.24 -9.87,-9.74l-4.61 -77.9c-0.19,-2.36 -1.47,-3.54 -3.83,-3.54l-149.6 0c-2.36,0 -4.03,1.18 -5.02,3.54l-30.8 77.9c-2.28,6.49 -6.65,9.74 -13.15,9.74l-130.13 0c-7.67,0 -9.98,-3.83 -6.92,-11.51l259.18 -599.3c2.76,-5.9 7.39,-8.85 13.88,-8.85l154.92 0c6.49,0 10.13,2.95 10.9,8.85l57.74 599.3 0.29 3.54c-0.89,5.31 -4.58,7.97 -11.07,7.97l-131.9 0zm-126 -208.91c-1.09,2.95 0.14,4.43 3.69,4.43l94.72 0c1.18,0 2.44,-0.44 3.77,-1.33 1.32,-0.89 1.84,-2.21 1.55,-3.98l-12.68 -219.54c-0.19,-2.36 -0.88,-3.54 -2.06,-3.54 -1.18,0 -2.26,1.18 -3.25,3.54l-85.73 220.42z"/>
    <path id="_4" class="fil1" d="M3724.67 517.6c-9.62,57.24 -35.8,100.62 -78.52,130.13 -42.73,29.51 -93.89,44.26 -153.5,44.26l-207.14 0c-2.95,0 -5.29,-1.03 -7,-3.1 -1.72,-2.07 -2.33,-4.57 -1.83,-7.52l100.57 -598.41c0.5,-2.95 1.95,-5.46 4.36,-7.52 2.41,-2.07 5.09,-3.1 8.05,-3.1l192.09 0c66.69,0 115.67,14.02 146.96,42.05 31.29,28.03 41.97,71.56 32.06,130.57 -9.52,56.65 -37.12,97.96 -82.8,123.93 -3.84,1.77 -4.43,3.54 -1.78,5.31 43.24,30.69 59.4,78.49 48.49,143.41zm-215.4 -319.57c-2.95,0 -4.67,1.48 -5.17,4.43l-18.89 112.42c-0.5,2.95 0.73,4.43 3.68,4.43l52.23 0c20.66,0 37.31,-5.16 49.96,-15.49 12.65,-10.33 20.61,-25.23 23.89,-44.7 3.28,-19.48 0.2,-34.52 -9.23,-45.15 -9.43,-10.63 -24.17,-15.94 -44.24,-15.94l-52.23 0zm-1.54 367.37c19.48,0 35.64,-5.76 48.49,-17.26 12.85,-11.51 21.06,-27.88 24.63,-49.13 3.47,-20.65 0.89,-36.88 -7.75,-48.69 -8.64,-11.8 -22.7,-17.7 -42.17,-17.7l-61.08 0c-2.95,0 -4.67,1.48 -5.17,4.43l-20.83 123.93c-0.49,2.95 0.74,4.43 3.69,4.43l60.2 0z"/>
    <path id="_5" class="fil1" d="M4233.39 187.41c-0.5,2.95 -1.95,5.46 -4.36,7.52 -2.41,2.07 -5.09,3.1 -8.04,3.1l-228.39 0c-2.95,0 -4.67,1.48 -5.17,4.43l-18.6 110.65c-0.5,2.95 0.73,4.43 3.68,4.43l138.1 0c2.95,0 5.28,1.03 7,3.1 1.72,2.06 2.33,4.57 1.83,7.52l-17.56 104.46c-0.5,2.95 -1.95,5.46 -4.36,7.52 -2.42,2.07 -5.1,3.1 -8.05,3.1l-138.1 0c-2.95,0 -4.67,1.48 -5.17,4.43l-19.19 114.19c-0.5,2.95 0.73,4.43 3.68,4.43l228.39 0c2.95,0 5.28,1.03 7,3.1 1.72,2.06 2.33,4.57 1.83,7.52l-17.56 104.46c-0.5,2.95 -1.95,5.46 -4.36,7.52 -2.41,2.07 -5.09,3.1 -8.04,3.1l-369.14 0c-2.95,0 -5.29,-1.03 -7,-3.1 -1.72,-2.07 -2.33,-4.57 -1.83,-7.52l100.57 -598.41c0.5,-2.95 1.95,-5.46 4.36,-7.52 2.41,-2.07 5.09,-3.1 8.05,-3.1l369.14 0c2.95,0 5.28,1.03 7,3.1 1.72,2.07 2.33,4.57 1.83,7.52l-17.56 104.46z"/>
    <path id="_6" class="fil1" d="M4219.41 691.99c-2.95,0 -5.29,-1.03 -7,-3.1 -1.72,-2.07 -2.33,-4.57 -1.83,-7.52l100.57 -598.41c0.5,-2.95 1.95,-5.46 4.36,-7.52 2.41,-2.07 5.09,-3.1 8.05,-3.1l125.7 0c2.95,0 5.29,1.03 7,3.1 1.72,2.07 2.33,4.57 1.83,7.52l-80.48 478.91c-0.5,2.95 0.73,4.43 3.68,4.43l231.93 0c2.95,0 5.29,1.03 7,3.1 1.72,2.06 2.33,4.57 1.83,7.52l-17.56 104.46c-0.5,2.95 -1.95,5.46 -4.36,7.52 -2.41,2.07 -5.09,3.1 -8.05,3.1l-372.68 0z"/>
    <polygon class="fil1" points="1245.38,938.4 1269.89,792.56 1285.31,792.56 1260.8,938.4 "/>
    <polygon id="_1_0" class="fil1" points="1345.76,938.4 1370.27,792.56 1382.98,792.56 1462.31,919.23 1455.65,919.23 1476.94,792.56 1492.15,792.56 1467.64,938.4 1454.93,938.4 1375.8,811.73 1382.46,811.73 1361.17,938.4 "/>
    <polygon id="_2_1" class="fil1" points="1580.93,938.4 1603.2,805.89 1551.95,805.89 1554.19,792.56 1672.11,792.56 1669.87,805.89 1618.62,805.89 1596.35,938.4 "/>
    <path id="_3_2" class="fil1" d="M1736.94 857.77l77.09 0 -2.2 13.13 -77.09 0 2.2 -13.13zm-9.65 67.3l87.71 0 -2.24 13.33 -103.13 0 24.51 -145.84 100 0 -2.24 13.33 -84.59 0 -20.03 119.17z"/>
    <path id="_4_3" class="fil1" d="M1886.47 938.4l24.51 -145.84 54.59 0c12.36,0 22.65,1.98 30.88,5.94 8.22,3.96 14.11,9.65 17.65,17.09 3.54,7.43 4.43,16.43 2.65,26.98 -1.73,10.28 -5.61,19.13 -11.65,26.56 -6.04,7.43 -13.83,13.13 -23.39,17.09 -9.56,3.96 -20.51,5.94 -32.87,5.94l-46.04 0 8.06 -7.09 -8.96 53.34 -15.42 0zm99.59 0l-28.61 -52.92 16.67 0 28.81 52.92 -16.87 0zm-75.42 -52.09l-5.65 -7.29 45.63 0c14.58,0 26.2,-3.2 34.84,-9.59 8.65,-6.39 13.93,-15.35 15.87,-26.87 1.96,-11.67 -0.3,-20.7 -6.8,-27.09 -6.5,-6.39 -17.04,-9.58 -31.62,-9.58l-45.63 0 8.1 -7.29 -14.74 87.71z"/>
    <polygon id="_5_4" class="fil1" points="2074.56,938.4 2099.07,792.56 2111.78,792.56 2191.12,919.23 2184.45,919.23 2205.74,792.56 2220.95,792.56 2196.44,938.4 2183.73,938.4 2104.6,811.73 2111.27,811.73 2089.98,938.4 "/>
    <path id="_6_5" class="fil1" d="M2258.06 938.4l91.18 -145.84 15.21 0 42.16 145.84 -16.25 0 -38.25 -136.88 6.25 0 -84.26 136.88 -16.04 0zm32.8 -38.96l6.69 -12.5 84.8 0 2.48 12.5 -93.96 0z"/>
    <polygon id="_7" class="fil1" points="2489.28,938.4 2511.55,805.89 2460.3,805.89 2462.54,792.56 2580.46,792.56 2578.22,805.89 2526.96,805.89 2504.69,938.4 "/>
    <polygon id="_8" class="fil1" points="2617.98,938.4 2642.5,792.56 2657.91,792.56 2633.4,938.4 "/>
    <path id="_9" class="fil1" d="M2781.9 939.65c-10.97,0 -20.84,-1.84 -29.59,-5.52 -8.76,-3.68 -16.01,-8.89 -21.75,-15.63 -5.74,-6.74 -9.78,-14.58 -12.09,-23.54 -2.31,-8.96 -2.57,-18.78 -0.78,-29.48 1.8,-10.7 5.36,-20.52 10.68,-29.48 5.33,-8.96 12,-16.81 20,-23.54 8.01,-6.74 16.97,-11.94 26.9,-15.63 9.93,-3.68 20.44,-5.52 31.56,-5.52 10.98,0 20.81,1.84 29.49,5.52 8.69,3.68 15.91,8.85 21.67,15.52 5.75,6.67 9.78,14.52 12.09,23.54 2.3,9.03 2.56,18.89 0.76,29.59 -1.8,10.7 -5.36,20.56 -10.7,29.59 -5.33,9.03 -12,16.87 -20,23.54 -8,6.67 -16.96,11.84 -26.88,15.52 -9.93,3.68 -20.37,5.52 -31.35,5.52zm2.31 -13.75c8.75,0 17.09,-1.49 25.03,-4.48 7.93,-2.99 15.1,-7.22 21.51,-12.71 6.41,-5.49 11.76,-11.88 16.04,-19.17 4.28,-7.29 7.15,-15.31 8.63,-24.06 1.47,-8.75 1.29,-16.77 -0.54,-24.06 -1.83,-7.29 -5.03,-13.68 -9.59,-19.17 -4.56,-5.48 -10.31,-9.72 -17.24,-12.71 -6.93,-2.99 -14.77,-4.48 -23.52,-4.48 -8.75,0 -17.12,1.49 -25.13,4.48 -8,2.98 -15.21,7.22 -21.62,12.71 -6.41,5.49 -11.79,11.88 -16.14,19.17 -4.35,7.29 -7.26,15.31 -8.73,24.06 -1.45,8.61 -1.23,16.6 0.66,23.96 1.89,7.36 5.11,13.78 9.68,19.27 4.56,5.48 10.35,9.72 17.35,12.71 7,2.99 14.87,4.48 23.62,4.48z"/>
    <polygon id="_10" class="fil1" points="2930.61,938.4 2955.13,792.56 2967.83,792.56 3047.17,919.23 3040.51,919.23 3061.8,792.56 3077.01,792.56 3052.5,938.4 3039.79,938.4 2960.66,811.73 2967.32,811.73 2946.03,938.4 "/>
    <path id="_11" class="fil1" d="M3114.12 938.4l91.18 -145.84 15.21 0 42.16 145.84 -16.25 0 -38.25 -136.88 6.25 0 -84.26 136.88 -16.04 0zm32.8 -38.96l6.69 -12.5 84.8 0 2.48 12.5 -93.96 0z"/>
    <polygon id="_12" class="fil1" points="3324.29,938.4 3348.8,792.56 3364.22,792.56 3341.95,925.07 3423.62,925.07 3421.38,938.4 "/>
    <polygon id="_13" class="fil1" points="3539.05,938.4 3563.56,792.56 3578.98,792.56 3556.7,925.07 3638.38,925.07 3636.14,938.4 "/>
    <polygon id="_14" class="fil1" points="3699.22,938.4 3723.73,792.56 3739.15,792.56 3714.63,938.4 "/>
    <polygon id="_15" class="fil1" points="3799.59,938.4 3824.1,792.56 3836.81,792.56 3884.36,906.31 3877.7,906.31 3962.86,792.56 3975.57,792.56 3951.06,938.4 3936.26,938.4 3956.89,815.69 3960.43,815.69 3882.09,919.86 3874.8,919.86 3831.05,815.69 3835.01,815.69 3814.38,938.4 "/>
    <polygon id="_16" class="fil1" points="4036.02,938.4 4060.53,792.56 4075.94,792.56 4051.43,938.4 "/>
    <polygon id="_17" class="fil1" points="4164.72,938.4 4187,805.89 4135.74,805.89 4137.98,792.56 4255.91,792.56 4253.67,805.89 4202.41,805.89 4180.14,938.4 "/>
    <path id="_18" class="fil1" d="M4320.74 857.77l77.09 0 -2.2 13.13 -77.09 0 2.2 -13.13zm-9.65 67.3l87.71 0 -2.24 13.33 -103.13 0 24.51 -145.84 100 0 -2.24 13.33 -84.59 0 -20.03 119.17z"/>
    <path id="_19" class="fil1" d="M4470.27 938.4l24.51 -145.84 59.38 0c15.56,0 28.69,3.09 39.38,9.27 10.7,6.18 18.39,14.76 23.07,25.73 4.68,10.97 5.82,23.61 3.42,37.92 -2.41,14.31 -7.79,26.94 -16.17,37.92 -8.37,10.98 -18.94,19.55 -31.72,25.73 -12.78,6.18 -26.94,9.27 -42.5,9.27l-59.38 0zm17.66 -13.33l43.13 0c12.92,0 24.56,-2.54 34.93,-7.6 10.37,-5.07 18.94,-12.09 25.72,-21.04 6.79,-8.96 11.16,-19.27 13.12,-30.94 1.98,-11.81 1.09,-22.15 -2.7,-31.04 -3.78,-8.89 -10,-15.87 -18.67,-20.94 -8.67,-5.07 -19.45,-7.6 -32.37,-7.6l-43.13 0 -20.03 119.17z"/>
   </g>
  </g>
 </g>
</svg>
