<?xml version="1.0" encoding="UTF-8"?>
<!DOCTYPE svg PUBLIC "-//W3C//DTD SVG 1.1//EN" "http://www.w3.org/Graphics/SVG/1.1/DTD/svg11.dtd">
<!-- Creator: CorelDRAW -->
<svg xmlns="http://www.w3.org/2000/svg" xml:space="preserve" width="2.55105in" height="0.533622in" version="1.1" style="shape-rendering:geometricPrecision; text-rendering:geometricPrecision; image-rendering:optimizeQuality; fill-rule:evenodd; clip-rule:evenodd"
viewBox="0 0 6487.56 1357.05"
 xmlns:xlink="http://www.w3.org/1999/xlink"
 xmlns:xodm="http://www.corel.com/coreldraw/odm/2003">
 <defs>
  <style type="text/css">
   <![CDATA[
    .fil0 {fill:#3A1C5A}
    .fil1 {fill:#3A1C5A;fill-rule:nonzero}
   ]]>
  </style>
 </defs>
 <g id="PowerClip_x0020_Contents">
  <metadata id="CorelCorpID_0Corel-Layer"/>
  <g id="_2095353656752">
   <g>
    <path class="fil0" d="M1487.24 933.23l-848.11 -16.37 29.32 -54.9 818.8 -16.95c24.25,-0.5 44.1,19.84 44.1,44.1l0 0.01c0,24.26 -19.86,44.57 -44.1,44.1zm0 -509.4l-848.11 16.37 29.32 54.9 818.8 16.95c24.25,0.5 44.1,-19.84 44.1,-44.1l0 -0.01c0,-24.26 -19.86,-44.57 -44.1,-44.1zm-62.39 -146.37l-862.73 18.5 26.96 50.5 835.77 19.22c24.25,0.55 44.11,-19.85 44.11,-44.11l0 0c0,-24.26 -19.88,-44.63 -44.11,-44.11zm82.61 277.43l-799.45 14.34 31.58 59.13 767.88 14.76c24.26,0.46 44.11,-19.84 44.11,-44.11l0 0c0,-24.26 -19.87,-44.54 -44.11,-44.11zm-190.58 -409.27l-824.14 20.38 24.91 46.64 799.23 21.21c24.25,0.64 44.1,-19.85 44.1,-44.11l0 0c0,-24.26 -19.88,-44.7 -44.1,-44.11zm107.97 933.98l-862.73 -18.5 26.96 -50.5 835.77 -19.22c24.25,-0.55 44.11,19.85 44.11,44.11l0 0c0,24.26 -19.88,44.63 -44.11,44.11zm82.61 -277.44l-799.45 -14.33 31.58 -59.13 767.88 -14.76c24.26,-0.46 44.11,19.84 44.11,44.1l0 0.01c0,24.26 -19.87,44.53 -44.11,44.1zm-190.58 409.28l-824.14 -20.38 24.91 -46.65 799.23 -21.2c24.25,-0.64 44.1,19.85 44.1,44.11l0 0c0,24.26 -19.88,44.7 -44.1,44.11zm-148.96 145.6l-751.45 -23.12 21.91 -41.04 729.54 -24.07c24.25,-0.79 44.11,19.85 44.11,44.11l0 0c0,24.26 -19.9,44.85 -44.11,44.11zm0 -1357.01l-751.45 23.12 21.91 41.04 729.54 24.07c24.25,0.79 44.11,-19.85 44.11,-44.11l0 0c0,-24.27 -19.9,-44.85 -44.11,-44.11z"/>
    <polygon class="fil0" points="-0,0 310.39,0 672.65,678.53 310.39,1357.05 -0,1357.05 362.25,678.53 "/>
   </g>
   <g>
    <path class="fil1" d="M1812 971.18c-4.15,0 -7.42,-1.45 -9.83,-4.35 -2.41,-2.9 -3.26,-6.42 -2.56,-10.56l141.14 -839.84c0.69,-4.15 2.72,-7.66 6.12,-10.56 3.38,-2.89 7.15,-4.35 11.29,-4.35l277.05 0c58.8,0 108.75,10.76 149.87,32.3 41.1,21.54 70.6,51.76 88.5,90.69 17.88,38.93 22.51,84.07 13.88,135.42l-59.29 352.83c-8.63,51.35 -28.43,96.49 -59.4,135.41 -30.99,38.94 -70.64,69.16 -118.98,90.7 -48.35,21.54 -101.92,32.3 -160.73,32.3l-277.05 0zm222.02 -182.63c-0.7,4.15 1.03,6.22 5.17,6.22l82.2 -1.24c24.85,0 46.95,-9.53 66.3,-28.57 19.35,-19.05 32.16,-44.72 38.42,-77.03l51.15 -304.38c5.3,-31.47 1.49,-56.94 -11.38,-76.4 -12.88,-19.46 -32.57,-29.2 -59.07,-29.2l-80.76 0c-4.14,0 -6.56,2.07 -7.25,6.21l-84.77 504.4z"/>
    <path id="_1" class="fil1" d="M2766.54 983.61c-59.63,0 -110.21,-12.01 -151.72,-36.03 -41.52,-24.02 -71.23,-57.97 -89.11,-101.87 -17.89,-43.89 -21.96,-94.84 -12.2,-152.81l52.61 -313.08c9.6,-57.15 30.69,-107.46 63.26,-150.94 32.56,-43.48 73.65,-77.23 123.24,-101.25 49.59,-24.02 104.21,-36.03 163.84,-36.03 59.63,0 110.2,12.01 151.72,36.03 41.51,24.02 71.25,57.77 89.21,101.25 17.95,43.48 22.13,93.79 12.53,150.94l-52.61 313.08c-9.75,57.97 -30.95,108.91 -63.58,152.81 -32.64,43.9 -73.76,77.85 -123.34,101.87 -49.6,24.02 -104.21,36.03 -163.84,36.03zm29.86 -177.66c28.99,0 53.81,-9.73 74.47,-29.2 20.68,-19.46 33.64,-44.93 38.94,-76.41l54.7 -325.5c5.3,-31.48 0.71,-57.15 -13.77,-77.03 -14.46,-19.87 -35.77,-29.82 -63.93,-29.82 -29,0 -53.83,9.73 -74.48,29.2 -20.67,19.46 -33.71,45.35 -39.15,77.65l-54.7 325.5c-5.3,31.48 -0.87,56.95 13.25,76.41 14.12,19.46 35.67,29.2 64.67,29.2z"/>
    <path id="_2" class="fil1" d="M3563.73 971.18c-8.28,0 -12.97,-4.15 -14.06,-12.43l-61.45 -329.23c-1.09,-3.31 -2.88,-4.97 -5.37,-4.97l-49.7 0c-4.14,0 -6.56,2.07 -7.26,6.21l-54.7 325.51c-0.7,4.15 -2.74,7.66 -6.13,10.56 -3.38,2.89 -7.16,4.35 -11.29,4.35l-176.41 0c-4.15,0 -7.42,-1.45 -9.83,-4.35 -2.41,-2.9 -3.26,-6.42 -2.56,-10.56l141.14 -839.84c0.69,-4.15 2.72,-7.66 6.12,-10.56 3.38,-2.89 7.15,-4.35 11.29,-4.35l318.05 0c51.35,0 94.79,11.38 130.3,34.16 35.5,22.78 60.63,54.46 75.33,95.05 14.72,40.58 17.63,87.38 8.72,140.38 -8.77,52.18 -27.61,97.74 -56.52,136.67 -28.91,38.93 -64.9,68.33 -108,88.21 -3.45,0.83 -4.7,3.31 -3.73,7.46l76.53 350.35c0.55,1.65 0.62,3.72 0.2,6.21 -1.25,7.46 -6.44,11.18 -15.55,11.18l-185.12 0zm-72.33 -693.24c-4.14,0 -6.56,2.07 -7.25,6.21l-29.66 176.42c-0.69,4.14 1.03,6.21 5.17,6.21l86.97 0c26.51,0 49.23,-8.28 68.16,-24.85 18.93,-16.56 30.84,-39.34 35.7,-68.32 5.02,-29.82 0.87,-53.21 -12.43,-70.2 -13.3,-16.98 -33.19,-25.47 -59.7,-25.47l-86.97 0z"/>
    <path id="_3" class="fil1" d="M4321.58 971.18c-9.11,0 -13.72,-4.56 -13.85,-13.67l-6.48 -109.33c-0.27,-3.3 -2.06,-4.97 -5.38,-4.97l-209.97 0c-3.3,0 -5.66,1.66 -7.04,4.97l-43.22 109.33c-3.18,9.11 -9.34,13.67 -18.45,13.67l-182.62 0c-10.77,0 -14,-5.39 -9.71,-16.15l363.74 -841.08c3.87,-8.29 10.36,-12.43 19.47,-12.43l217.41 0c9.11,0 14.22,4.14 15.32,12.43l81.02 841.08 0.41 4.97c-1.25,7.46 -6.44,11.18 -15.55,11.18l-185.12 0zm-176.83 -293.2c-1.53,4.14 0.2,6.21 5.17,6.21l132.93 0c1.66,0 3.41,-0.62 5.29,-1.86 1.86,-1.24 2.58,-3.1 2.18,-5.59l-17.79 -308.12c-0.28,-3.31 -1.24,-4.97 -2.89,-4.97 -1.66,0 -3.18,1.65 -4.57,4.97l-120.32 309.36z"/>
    <path id="_4" class="fil1" d="M5227.42 726.43c-13.51,80.34 -50.24,141.21 -110.2,182.63 -59.96,41.41 -131.78,62.12 -215.43,62.12l-290.71 0c-4.15,0 -7.42,-1.45 -9.83,-4.35 -2.41,-2.9 -3.26,-6.42 -2.56,-10.56l141.14 -839.84c0.69,-4.15 2.72,-7.66 6.12,-10.56 3.38,-2.89 7.15,-4.35 11.29,-4.35l269.59 0c93.59,0 162.35,19.66 206.26,59.01 43.9,39.34 58.91,100.42 44.99,183.25 -13.37,79.51 -52.1,137.49 -116.21,173.93 -5.39,2.48 -6.21,4.97 -2.49,7.45 60.68,43.07 83.36,110.15 68.05,201.27zm-302.31 -448.5c-4.14,0 -6.56,2.07 -7.25,6.21l-26.52 157.78c-0.69,4.15 1.03,6.22 5.17,6.22l73.3 0c29,0 52.37,-7.25 70.13,-21.75 17.75,-14.49 28.94,-35.4 33.53,-62.74 4.6,-27.33 0.27,-48.45 -12.97,-63.36 -13.23,-14.91 -33.92,-22.37 -62.09,-22.37l-73.3 0zm-2.17 515.59c27.33,0 50.02,-8.08 68.06,-24.23 18.03,-16.15 29.56,-39.14 34.57,-68.95 4.87,-28.99 1.24,-51.76 -10.88,-68.32 -12.11,-16.57 -31.85,-24.85 -59.18,-24.85l-85.72 0c-4.14,0 -6.56,2.07 -7.26,6.21l-29.23 173.93c-0.7,4.15 1.02,6.22 5.16,6.22l84.48 0z"/>
    <path id="_5" class="fil1" d="M5941.4 263.03c-0.69,4.15 -2.73,7.66 -6.13,10.56 -3.38,2.89 -7.15,4.35 -11.28,4.35l-320.54 0c-4.14,0 -6.56,2.07 -7.25,6.21l-26.1 155.3c-0.7,4.15 1.03,6.22 5.17,6.22l193.82 0c4.14,0 7.41,1.44 9.82,4.35 2.41,2.89 3.27,6.42 2.57,10.56l-24.63 146.6c-0.7,4.14 -2.74,7.66 -6.14,10.56 -3.37,2.89 -7.15,4.35 -11.28,4.35l-193.82 0c-4.14,0 -6.56,2.07 -7.25,6.21l-26.93 160.27c-0.7,4.15 1.03,6.22 5.17,6.22l320.54 0c4.14,0 7.41,1.45 9.82,4.35 2.41,2.9 3.27,6.42 2.57,10.56l-24.63 146.6c-0.7,4.15 -2.74,7.66 -6.14,10.56 -3.37,2.89 -7.15,4.35 -11.28,4.35l-518.07 0c-4.15,0 -7.42,-1.45 -9.83,-4.35 -2.41,-2.9 -3.26,-6.42 -2.56,-10.56l141.14 -839.84c0.69,-4.15 2.72,-7.66 6.12,-10.56 3.38,-2.89 7.15,-4.35 11.29,-4.35l518.07 0c4.14,0 7.42,1.45 9.82,4.35 2.41,2.9 3.27,6.42 2.58,10.56l-24.64 146.6z"/>
    <path id="_6" class="fil1" d="M5921.77 971.18c-4.15,0 -7.42,-1.45 -9.83,-4.35 -2.41,-2.9 -3.26,-6.42 -2.56,-10.56l141.14 -839.84c0.69,-4.15 2.72,-7.66 6.12,-10.56 3.38,-2.89 7.15,-4.35 11.29,-4.35l176.41 0c4.14,0 7.42,1.45 9.83,4.35 2.4,2.9 3.26,6.42 2.57,10.56l-112.96 672.12c-0.7,4.15 1.03,6.22 5.17,6.22l325.51 0c4.14,0 7.41,1.45 9.83,4.35 2.4,2.9 3.26,6.42 2.56,10.56l-24.63 146.6c-0.7,4.15 -2.74,7.66 -6.13,10.56 -3.38,2.89 -7.16,4.35 -11.29,4.35l-523.04 0z"/>
    <polygon class="fil1" points="1747.85,1317 1782.24,1112.32 1803.89,1112.32 1769.5,1317 "/>
    <polygon id="_1_6" class="fil1" points="1888.72,1317 1923.11,1112.32 1940.95,1112.32 2052.31,1290.1 2042.95,1290.1 2072.82,1112.32 2094.17,1112.32 2059.78,1317 2041.95,1317 1930.88,1139.22 1940.24,1139.22 1910.37,1317 "/>
    <polygon id="_2_7" class="fil1" points="2218.78,1317 2250.03,1131.04 2178.1,1131.04 2181.25,1112.32 2346.75,1112.32 2343.6,1131.04 2271.67,1131.04 2240.42,1317 "/>
    <path id="_3_8" class="fil1" d="M2437.74 1203.85l108.19 0 -3.09 18.42 -108.19 0 3.09 -18.42zm-13.53 94.45l123.1 0 -3.14 18.71 -144.75 0 34.39 -204.68 140.36 0 -3.14 18.71 -118.71 0 -28.1 167.25z"/>
    <path id="_4_9" class="fil1" d="M2647.6 1317l34.39 -204.68 76.61 0c17.35,0 31.8,2.77 43.33,8.33 11.55,5.56 19.8,13.55 24.78,23.98 4.98,10.42 6.22,23.05 3.72,37.87 -2.42,14.42 -7.87,26.85 -16.35,37.28 -8.49,10.43 -19.42,18.42 -32.84,23.98 -13.41,5.56 -28.79,8.33 -46.14,8.33l-64.62 0 11.32 -9.93 -12.58 74.85 -21.65 0zm139.77 0l-40.16 -74.27 23.4 0 40.45 74.27 -23.69 0zm-105.84 -73.1l-7.94 -10.23 64.04 0c20.46,0 36.77,-4.49 48.9,-13.46 12.13,-8.96 19.56,-21.54 22.28,-37.72 2.75,-16.38 -0.43,-29.05 -9.55,-38.02 -9.11,-8.97 -23.91,-13.45 -44.37,-13.45l-64.04 0 11.37 -10.24 -20.69 123.11z"/>
    <polygon id="_5_10" class="fil1" points="2911.58,1317 2945.97,1112.32 2963.81,1112.32 3075.17,1290.1 3065.8,1290.1 3095.68,1112.32 3117.03,1112.32 3082.63,1317 3064.8,1317 2953.74,1139.22 2963.1,1139.22 2933.22,1317 "/>
    <path id="_6_11" class="fil1" d="M3169.12 1317l127.97 -204.68 21.35 0 59.18 204.68 -22.81 0 -53.7 -192.11 8.77 0 -118.24 192.11 -22.52 0zm46.03 -54.68l9.39 -17.55 119 0 3.48 17.55 -131.88 0z"/>
    <polygon id="_7" class="fil1" points="3493.63,1317 3524.87,1131.04 3452.95,1131.04 3456.09,1112.32 3621.59,1112.32 3618.45,1131.04 3546.51,1131.04 3515.26,1317 "/>
    <polygon id="_8" class="fil1" points="3674.27,1317 3708.66,1112.32 3730.3,1112.32 3695.91,1317 "/>
    <path id="_9" class="fil1" d="M3904.32 1318.76c-15.4,0 -29.24,-2.58 -41.53,-7.75 -12.29,-5.17 -22.47,-12.48 -30.53,-21.93 -8.06,-9.45 -13.72,-20.46 -16.96,-33.04 -3.25,-12.58 -3.6,-26.37 -1.09,-41.38 2.52,-15.01 7.52,-28.8 15,-41.37 7.47,-12.58 16.83,-23.59 28.07,-33.04 11.22,-9.46 23.81,-16.77 37.75,-21.94 13.92,-5.17 28.68,-7.75 44.28,-7.75 15.4,0 29.2,2.58 41.39,7.75 12.19,5.17 22.33,12.43 30.4,21.79 8.08,9.36 13.74,20.37 16.96,33.04 3.24,12.68 3.58,26.51 1.06,41.52 -2.51,15.01 -7.52,28.86 -15.01,41.52 -7.49,12.68 -16.85,23.69 -28.07,33.05 -11.21,9.35 -23.79,16.61 -37.73,21.78 -13.92,5.17 -28.59,7.75 -43.99,7.75zm3.24 -19.29c12.28,0 23.99,-2.1 35.12,-6.29 11.13,-4.2 21.2,-10.14 30.2,-17.84 8.99,-7.7 16.49,-16.66 22.51,-26.9 6,-10.23 10.03,-21.49 12.09,-33.77 2.07,-12.27 1.82,-23.54 -0.75,-33.77 -2.57,-10.23 -7.05,-19.2 -13.46,-26.9 -6.42,-7.7 -14.48,-13.65 -24.21,-17.83 -9.71,-4.2 -20.72,-6.29 -33,-6.29 -12.28,0 -24.04,2.09 -35.27,6.29 -11.22,4.19 -21.34,10.13 -30.34,17.83 -8.99,7.7 -16.54,16.67 -22.65,26.9 -6.1,10.23 -10.18,21.5 -12.25,33.77 -2.02,12.08 -1.72,23.3 0.93,33.63 2.65,10.33 7.17,19.34 13.58,27.04 6.42,7.7 14.53,13.65 24.35,17.84 9.81,4.19 20.87,6.29 33.15,6.29z"/>
    <polygon id="_10" class="fil1" points="4113.03,1317 4147.42,1112.32 4165.26,1112.32 4276.62,1290.1 4267.26,1290.1 4297.13,1112.32 4318.48,1112.32 4284.09,1317 4266.26,1317 4155.19,1139.22 4164.55,1139.22 4134.68,1317 "/>
    <path id="_11" class="fil1" d="M4370.57 1317l127.97 -204.68 21.35 0 59.18 204.68 -22.81 0 -53.7 -192.11 8.77 0 -118.24 192.11 -22.52 0zm46.03 -54.68l9.39 -17.55 119 0 3.48 17.55 -131.88 0z"/>
    <polygon id="_12" class="fil1" points="4665.54,1317 4699.93,1112.32 4721.58,1112.32 4690.33,1298.29 4804.95,1298.29 4801.81,1317 "/>
    <polygon id="_13" class="fil1" points="4966.95,1317 5001.34,1112.32 5022.99,1112.32 4991.74,1298.29 5106.36,1298.29 5103.22,1317 "/>
    <polygon id="_14" class="fil1" points="5191.74,1317 5226.14,1112.32 5247.78,1112.32 5213.39,1317 "/>
    <polygon id="_15" class="fil1" points="5332.62,1317 5367.01,1112.32 5384.85,1112.32 5451.59,1271.97 5442.24,1271.97 5561.75,1112.32 5579.59,1112.32 5545.19,1317 5524.44,1317 5553.38,1144.77 5558.35,1144.77 5448.39,1290.98 5438.15,1290.98 5376.77,1144.77 5382.33,1144.77 5353.38,1317 "/>
    <polygon id="_16" class="fil1" points="5664.43,1317 5698.82,1112.32 5720.47,1112.32 5686.08,1317 "/>
    <polygon id="_17" class="fil1" points="5845.07,1317 5876.32,1131.04 5804.39,1131.04 5807.53,1112.32 5973.04,1112.32 5969.89,1131.04 5897.95,1131.04 5866.71,1317 "/>
    <path id="_18" class="fil1" d="M6064.03 1203.85l108.19 0 -3.09 18.42 -108.19 0 3.09 -18.42zm-13.53 94.45l123.1 0 -3.14 18.71 -144.75 0 34.39 -204.68 140.36 0 -3.14 18.71 -118.71 0 -28.1 167.25z"/>
    <path id="_19" class="fil1" d="M6273.89 1317l34.39 -204.68 83.34 0c21.83,0 40.25,4.34 55.28,13.01 15.01,8.68 25.8,20.72 32.38,36.11 6.57,15.4 8.17,33.14 4.8,53.21 -3.37,20.08 -10.93,37.82 -22.69,53.22 -11.74,15.4 -26.58,27.43 -44.51,36.1 -17.94,8.68 -37.82,13.02 -59.64,13.02l-83.34 0zm24.79 -18.71l60.52 0c18.13,0 34.46,-3.55 49.02,-10.67 14.54,-7.12 26.58,-16.96 36.1,-29.54 9.52,-12.58 15.66,-27.04 18.4,-43.42 2.79,-16.57 1.52,-31.09 -3.78,-43.56 -5.32,-12.48 -14.05,-22.28 -26.2,-29.39 -12.16,-7.12 -27.3,-10.67 -45.44,-10.67l-60.52 0 -28.1 167.25z"/>
   </g>
  </g>
 </g>
</svg>
