<?xml version="1.0" encoding="UTF-8"?>
<!DOCTYPE svg PUBLIC "-//W3C//DTD SVG 1.1//EN" "http://www.w3.org/Graphics/SVG/1.1/DTD/svg11.dtd">
<!-- Creator: CorelDRAW -->
<svg xmlns="http://www.w3.org/2000/svg" xml:space="preserve" width="0.610114in" height="0.533622in" version="1.1" style="shape-rendering:geometricPrecision; text-rendering:geometricPrecision; image-rendering:optimizeQuality; fill-rule:evenodd; clip-rule:evenodd"
viewBox="0 0 371.08 324.56"
 xmlns:xlink="http://www.w3.org/1999/xlink"
 xmlns:xodm="http://www.corel.com/coreldraw/odm/2003">
 <defs>
  <style type="text/css">
   <![CDATA[
    .fil0 {fill:#3A1C5A}
   ]]>
  </style>
 </defs>
 <g id="PowerClip_x0020_Contents">
  <metadata id="CorelCorpID_0Corel-Layer"/>
  <g id="_2095342360864">
   <path class="fil0" d="M355.69 223.19l-202.84 -3.92 7.01 -13.13 195.83 -4.05c5.8,-0.12 10.55,4.75 10.55,10.55l0 0c0,5.8 -4.75,10.66 -10.55,10.55zm0 -121.83l-202.84 3.92 7.01 13.13 195.83 4.05c5.8,0.12 10.55,-4.75 10.55,-10.55l0 -0c0,-5.8 -4.75,-10.66 -10.55,-10.55zm-14.92 -35.01l-206.33 4.43 6.45 12.08 199.88 4.6c5.8,0.13 10.55,-4.75 10.55,-10.55l0 0c0,-5.8 -4.76,-10.67 -10.55,-10.55zm19.76 66.35l-191.2 3.43 7.55 14.14 183.65 3.53c5.8,0.11 10.55,-4.75 10.55,-10.55l0 0c0,-5.8 -4.75,-10.65 -10.55,-10.55zm-45.58 -97.88l-197.1 4.88 5.96 11.15 191.15 5.07c5.8,0.15 10.55,-4.75 10.55,-10.55l0 0c0,-5.8 -4.76,-10.69 -10.55,-10.55zm25.82 223.37l-206.33 -4.43 6.45 -12.08 199.88 -4.6c5.8,-0.13 10.55,4.75 10.55,10.55l0 0c0,5.8 -4.76,10.67 -10.55,10.55zm19.76 -66.35l-191.2 -3.43 7.55 -14.14 183.65 -3.53c5.8,-0.11 10.55,4.75 10.55,10.55l0 0c0,5.8 -4.75,10.65 -10.55,10.55zm-45.58 97.88l-197.1 -4.88 5.96 -11.16 191.15 -5.07c5.8,-0.15 10.55,4.75 10.55,10.55l0 0c0,5.8 -4.76,10.69 -10.55,10.55zm-35.63 34.82l-179.72 -5.53 5.24 -9.82 174.48 -5.76c5.8,-0.19 10.55,4.75 10.55,10.55l0 0c0,5.8 -4.76,10.73 -10.55,10.55zm0 -324.55l-179.72 5.53 5.24 9.82 174.48 5.76c5.8,0.19 10.55,-4.75 10.55,-10.55l0 0c0,-5.8 -4.76,-10.73 -10.55,-10.55z"/>
   <polygon class="fil0" points="-0,0 74.23,0 160.87,162.28 74.23,324.56 -0,324.56 86.64,162.28 "/>
  </g>
 </g>
</svg>
